<?xml version="1.0" encoding="UTF-8"?>
<!DOCTYPE svg PUBLIC "-//W3C//DTD SVG 1.1//EN" "http://www.w3.org/Graphics/SVG/1.1/DTD/svg11.dtd">
<svg xmlns="http://www.w3.org/2000/svg" version="1.1" width="666px" height="375px" style="shape-rendering:geometricPrecision; text-rendering:geometricPrecision; image-rendering:optimizeQuality; fill-rule:evenodd; clip-rule:evenodd" xmlns:xlink="http://www.w3.org/1999/xlink">
<g><path style="opacity:1" fill="#ff924f" d="M 111.5,-0.5 C 114.833,-0.5 118.167,-0.5 121.5,-0.5C 130.971,4.27553 140.638,8.77553 150.5,13C 150.255,14.9114 150.255,16.9114 150.5,19C 155.412,21.3724 160.245,23.8724 165,26.5C 170.107,39.1488 175.607,51.6488 181.5,64C 224.866,66.5019 268.2,69.3352 311.5,72.5C 320.631,73.9095 329.965,74.5762 339.5,74.5C 372.217,75.7578 404.884,77.7578 437.5,80.5C 446.631,81.9095 455.965,82.5762 465.5,82.5C 481.518,82.9178 497.518,83.7511 513.5,85C 520.468,86.298 525.801,89.798 529.5,95.5C 529.427,97.0269 530.094,98.0269 531.5,98.5C 534.588,102.328 535.922,106.828 535.5,112C 531.795,147.557 527.795,183.057 523.5,218.5C 523.5,220.167 523.5,221.833 523.5,223.5C 521.585,223.216 519.919,223.549 518.5,224.5C 433.909,235.157 349.242,245.657 264.5,256C 253.166,268.487 242.832,281.654 233.5,295.5C 324.161,297.498 415.161,298.164 506.5,297.5C 506.5,301.167 506.5,304.833 506.5,308.5C 498.981,308.175 491.648,308.508 484.5,309.5C 482.309,315.383 479.976,321.217 477.5,327C 488.645,339.983 487.978,352.316 475.5,364C 470.139,367.262 464.472,368.429 458.5,367.5C 456.485,366.076 454.152,365.41 451.5,365.5C 439.397,357.977 436.064,347.644 441.5,334.5C 442.906,334.027 443.573,333.027 443.5,331.5C 445.262,330.738 446.262,329.404 446.5,327.5C 445.165,321.494 443.832,315.494 442.5,309.5C 392.496,309.167 342.496,309.5 292.5,310.5C 290.446,316.174 288.113,321.674 285.5,327C 286.883,328.271 287.883,329.771 288.5,331.5C 288.427,333.027 289.094,334.027 290.5,334.5C 296.32,353.166 289.487,364.499 270,368.5C 250.249,364.993 243.249,353.659 249,334.5C 251.466,331.872 253.299,328.872 254.5,325.5C 253.162,320.148 251.829,314.814 250.5,309.5C 244.491,309.666 238.491,309.499 232.5,309C 230.509,308.626 228.842,307.793 227.5,306.5C 227.027,305.094 226.027,304.427 224.5,304.5C 219.737,298.643 219.403,292.643 223.5,286.5C 224.906,286.027 225.573,285.027 225.5,283.5C 227.273,280.94 229.273,278.607 231.5,276.5C 232.906,276.027 233.573,275.027 233.5,273.5C 238.683,266.815 243.683,259.981 248.5,253C 241.198,236.252 234.198,219.419 227.5,202.5C 227.715,200.821 227.048,199.821 225.5,199.5C 208.894,161.287 192.56,122.954 176.5,84.5C 176.715,82.8212 176.048,81.8212 174.5,81.5C 168.015,66.5259 161.515,51.5259 155,36.5C 151.622,33.9774 147.955,31.9774 144,30.5C 143.283,31.0442 142.783,31.7109 142.5,32.5C 141.609,33.1098 140.609,33.4431 139.5,33.5C 136.62,33.0598 133.954,32.0598 131.5,30.5C 131.027,29.0937 130.027,28.427 128.5,28.5C 122.407,26.2886 116.407,23.7886 110.5,21C 103.687,15.3171 103.02,9.15042 108.5,2.5C 110.027,2.57298 111.027,1.90632 111.5,0.5C 111.5,0.166667 111.5,-0.166667 111.5,-0.5 Z"/></g>
<g><path style="opacity:0.761" fill="#ffc9a7" d="M 111.5,0.5 C 111.027,1.90632 110.027,2.57298 108.5,2.5C 108.973,1.09368 109.973,0.427017 111.5,0.5 Z"/></g>
<g><path style="opacity:0.271" fill="#ffdcc6" d="M 128.5,28.5 C 130.027,28.427 131.027,29.0937 131.5,30.5C 129.973,30.573 128.973,29.9063 128.5,28.5 Z"/></g>
<g><path style="opacity:0.016" fill="#ffe7d9" d="M 142.5,32.5 C 141.947,34.5518 140.947,34.8852 139.5,33.5C 140.609,33.4431 141.609,33.1098 142.5,32.5 Z"/></g>
<g><path style="opacity:0.431" fill="#ffd1b5" d="M 311.5,72.5 C 321.035,72.4238 330.369,73.0905 339.5,74.5C 329.965,74.5762 320.631,73.9095 311.5,72.5 Z"/></g>
<g><path style="opacity:0.894" fill="#ffc8a6" d="M 174.5,81.5 C 176.048,81.8212 176.715,82.8212 176.5,84.5C 175.599,83.7095 174.932,82.7095 174.5,81.5 Z"/></g>
<g><path style="opacity:0.427" fill="#ffd2b6" d="M 437.5,80.5 C 447.035,80.4238 456.369,81.0905 465.5,82.5C 455.965,82.5762 446.631,81.9095 437.5,80.5 Z"/></g>
<g><path style="opacity:0.557" fill="#ffc8a5" d="M 529.5,95.5 C 530.906,95.9731 531.573,96.9731 531.5,98.5C 530.094,98.0269 529.427,97.0269 529.5,95.5 Z"/></g>
<g><path style="opacity:0.906" fill="#ffc6a3" d="M 225.5,199.5 C 227.048,199.821 227.715,200.821 227.5,202.5C 226.599,201.71 225.932,200.71 225.5,199.5 Z"/></g>
<g><path style="opacity:0.38" fill="#ffd2b6" d="M 523.5,218.5 C 524.461,220.265 524.795,222.265 524.5,224.5C 522.5,224.5 520.5,224.5 518.5,224.5C 519.919,223.549 521.585,223.216 523.5,223.5C 523.5,221.833 523.5,220.167 523.5,218.5 Z"/></g>
<g><path style="opacity:0.769" fill="#ffcbab" d="M 233.5,273.5 C 233.573,275.027 232.906,276.027 231.5,276.5C 231.427,274.973 232.094,273.973 233.5,273.5 Z"/></g>
<g><path style="opacity:0.733" fill="#ffcdae" d="M 225.5,283.5 C 225.573,285.027 224.906,286.027 223.5,286.5C 223.427,284.973 224.094,283.973 225.5,283.5 Z"/></g>
<g><path style="opacity:0.569" fill="#ffc29c" d="M 233.5,295.5 C 324.763,296.497 416.096,296.831 507.5,296.5C 507.5,300.833 507.5,305.167 507.5,309.5C 499.833,309.5 492.167,309.5 484.5,309.5C 491.648,308.508 498.981,308.175 506.5,308.5C 506.5,304.833 506.5,301.167 506.5,297.5C 415.161,298.164 324.161,297.498 233.5,295.5 Z"/></g>
<g><path style="opacity:0.447" fill="#ffd2b6" d="M 224.5,304.5 C 226.027,304.427 227.027,305.094 227.5,306.5C 225.973,306.573 224.973,305.906 224.5,304.5 Z"/></g>
<g><path style="opacity:0.639" fill="#ffceae" d="M 446.5,327.5 C 446.262,329.404 445.262,330.738 443.5,331.5C 443.738,329.596 444.738,328.262 446.5,327.5 Z"/></g>
<g><path style="opacity:0.427" fill="#ffcfb1" d="M 288.5,331.5 C 289.906,331.973 290.573,332.973 290.5,334.5C 289.094,334.027 288.427,333.027 288.5,331.5 Z"/></g>
<g><path style="opacity:0.475" fill="#ffcdae" d="M 443.5,331.5 C 443.573,333.027 442.906,334.027 441.5,334.5C 441.427,332.973 442.094,331.973 443.5,331.5 Z"/></g>
<g><path style="opacity:0.612" fill="#ffc8a6" d="M 451.5,365.5 C 454.152,365.41 456.485,366.076 458.5,367.5C 455.848,367.59 453.515,366.924 451.5,365.5 Z"/></g>
</svg>
